HIERARCHY
ROOT Hips
{
	OFFSET -3.958830 18.904000 13.208200
	CHANNELS 6 Xposition Yposition Zposition Zrotation Yrotation Xrotation 
	JOINT LHipJoint
	{
		OFFSET 0.000000 0.000000 0.000000
		CHANNELS 3 Zrotation Yrotation Xrotation
		JOINT LeftUpLeg
		{
			OFFSET 1.800000 -1.400000 0.085000
			CHANNELS 3 Zrotation Yrotation Xrotation
			JOINT LeftLeg
			{
				OFFSET 2.215000 -6.000000 0.000000
				CHANNELS 3 Zrotation Yrotation Xrotation
				JOINT LeftFoot
				{
					OFFSET 2.500000 -6.900000 0.000000
					CHANNELS 3 Zrotation Yrotation Xrotation
					JOINT LeftToeBase
					{
						OFFSET 0.200000 -0.500000 1.950000
						CHANNELS 3 Zrotation Yrotation Xrotation
						End Site
						{
							OFFSET 0.000000 0.000000 0.000000
						}
					}
				}
			}
		}
	}
	JOINT RHipJoint
	{
		OFFSET 0.000000 0.000000 0.000000
		CHANNELS 3 Zrotation Yrotation Xrotation
		JOINT RightUpLeg
		{
			OFFSET -1.800000 -1.400000 0.085000
			CHANNELS 3 Zrotation Yrotation Xrotation
			JOINT RightLeg
			{
				OFFSET -2.215000 -6.000000 0.000000
				CHANNELS 3 Zrotation Yrotation Xrotation
				JOINT RightFoot
				{
					OFFSET -2.500000 -6.900000 0.000000
					CHANNELS 3 Zrotation Yrotation Xrotation
					JOINT RightToeBase
					{
						OFFSET -0.200000 -0.500000 1.950000
						CHANNELS 3 Zrotation Yrotation Xrotation
						End Site
						{
							OFFSET 0.000000 0.000000 0.000000
						}
					}
				}
			}
		}
	}
	JOINT LowerBack
	{
		OFFSET 0.000000 0.000000 0.000000
		CHANNELS 3 Zrotation Yrotation Xrotation
		JOINT Spine
		{
			OFFSET -0.087000 1.940000 -0.288900
			CHANNELS 3 Zrotation Yrotation Xrotation
			JOINT Spine1
			{
				OFFSET 0.000000 1.950000 0.060000
				CHANNELS 3 Zrotation Yrotation Xrotation
				JOINT Neck
				{
					OFFSET 0.000000 0.000000 0.000000
					CHANNELS 3 Zrotation Yrotation Xrotation
					JOINT Neck1
					{
						OFFSET 0.000000 1.600000 0.340000
						CHANNELS 3 Zrotation Yrotation Xrotation
						JOINT Head
						{
							OFFSET 0.000000 1.667000 -0.240000
							CHANNELS 3 Zrotation Yrotation Xrotation
							End Site
							{
								OFFSET 0.000000 0.000000 0.000000
							}
						}
					}
				}
				JOINT LeftShoulder
				{
					OFFSET 0.000000 0.000000 0.000000
					CHANNELS 3 Zrotation Yrotation Xrotation
					JOINT LeftArm
					{
						OFFSET 2.700000 1.550000 -0.730000
						CHANNELS 3 Zrotation Yrotation Xrotation
						JOINT LeftForeArm
						{
							OFFSET 5.450000 0.000000 0.000000
							CHANNELS 3 Zrotation Yrotation Xrotation
							JOINT LeftHand
							{
								OFFSET 3.450000 0.000000 0.000000
								CHANNELS 3 Zrotation Yrotation Xrotation
								JOINT LeftHandIndex1
								{
									OFFSET 0.750000 0.000000 0.000000
									CHANNELS 3 Zrotation Yrotation Xrotation
									End Site
									{
										OFFSET 0.000000 0.000000 0.000000
									}
								}
							}
						}
					}
				}
				JOINT RightShoulder
				{
					OFFSET 0.000000 0.000000 0.000000
					CHANNELS 3 Zrotation Yrotation Xrotation
					JOINT RightArm
					{
						OFFSET -2.700000 1.550000 -0.730000
						CHANNELS 3 Zrotation Yrotation Xrotation
						JOINT RightForeArm
						{
							OFFSET -5.450000 0.000000 0.000000
							CHANNELS 3 Zrotation Yrotation Xrotation
							JOINT RightHand
							{
								OFFSET -3.450000 0.000000 0.000000
								CHANNELS 3 Zrotation Yrotation Xrotation
								JOINT RightHandIndex1
								{
									OFFSET -0.750000 0.000000 0.000000
									CHANNELS 3 Zrotation Yrotation Xrotation
									End Site
									{
										OFFSET 0.000000 0.000000 0.000000
									}
								}
							}
						}
					}
				}
			}
		}
	}
}
MOTION
Frames: 14
Frame Time: 0.016667
0.792450 17.372990 -2.385190 3.741310 -18.455380 4.831144 -14.612443 10.772757 4.850252 -7.922393 -8.826135 -43.408439 0.351059 3.009521 18.045689 -0.947154 2.975776 3.796472 -0.054360 -0.568410 0.042820 19.025664 -11.417257 2.533868 -0.609701 2.883286 -14.121160 7.026239 -8.072122 29.128562 -0.228992 -5.432720 2.501476 -0.123140 0.858770 0.417860 -5.560963 2.296959 -7.481292 23.802332 7.946616 9.503276 -1.869471 8.484466 11.708128 -0.067667 -2.814052 -6.890168 -6.144723 -0.546298 36.361195 -9.258120 -0.764430 6.533530 -6.776645 7.316489 -0.242145 -37.110304 -7.025956 0.353387 -25.179493 -70.149693 15.836101 -4.028593 3.748727 0.264640 0.601300 -0.435390 0.166260 5.950175 -2.958864 6.096080 57.620943 8.350121 1.256913 159.336446 63.889553 134.876069 1.690524 -1.884950 -0.445820 0.239500 0.284970 -0.105340 
0.806710 17.312660 -2.390040 4.012870 -17.991393 5.107912 -14.633982 10.749430 4.862651 -7.946359 -8.848855 -43.707045 -0.051005 2.982832 16.763846 -0.960795 2.850713 3.855252 -0.036170 -0.524640 0.030020 19.017642 -11.386328 2.508700 -0.351622 2.827075 -14.316618 6.617351 -7.887413 29.098862 -0.221746 -5.392023 2.527571 -0.093740 0.885600 0.417190 -5.516584 2.253985 -7.459007 23.096572 8.131957 9.158992 -1.525049 8.523476 11.849898 -0.232418 -2.678320 -6.663046 -5.841242 -0.478681 35.726379 -8.724500 -0.773960 6.195680 -6.527868 7.587801 -0.340810 -36.840530 -7.714388 0.790891 -23.835726 -72.014855 15.403915 -4.038995 3.765868 0.240060 0.620160 -0.440280 0.190830 6.038359 -3.342704 5.858675 57.414222 8.364947 1.575142 157.986436 63.807037 132.928313 1.680384 -1.886475 -0.441470 0.260880 0.271380 -0.085030 
0.843610 17.191180 -2.399700 4.222997 -17.323438 5.729350 -14.644841 10.752984 4.844787 -7.749939 -8.653685 -43.885999 -0.765779 2.879846 13.850971 -0.950707 2.583901 3.969550 -0.046590 -0.493520 -0.019790 19.014600 -11.357116 2.499031 0.205191 2.693929 -14.471720 6.115117 -7.582529 28.636810 -0.190795 -5.290760 2.583740 -0.082890 0.917950 0.412810 -5.487746 2.183775 -7.446522 22.837224 8.123529 8.895337 -1.668880 8.495649 11.732527 -0.534722 -3.083657 -6.623724 -6.514770 -0.413366 34.722344 -8.427310 -0.893940 6.664310 -6.601456 7.611732 -0.244379 -35.474385 -7.686294 1.175524 -22.518205 -76.021241 15.429416 -4.063832 3.802348 0.179280 0.646320 -0.456340 0.214660 6.660887 -3.085308 5.793714 56.604336 7.779318 1.856481 155.272453 62.989226 128.124499 1.714347 -1.895188 -0.419740 0.264990 0.262720 -0.044100 
0.898360 17.073690 -2.415610 4.038755 -16.767881 6.161433 -14.611989 10.746666 4.841334 -6.636041 -8.369831 -44.259134 -2.013338 3.057824 13.000281 -0.915713 2.570024 3.946570 -0.019340 -0.463200 -0.015080 19.039940 -11.392297 2.527083 1.079528 2.671356 -14.605951 4.900204 -7.118641 28.642335 -0.193113 -5.169599 2.614780 -0.089490 0.875380 0.434610 -5.557604 2.267120 -7.494691 24.085126 7.751360 9.488675 -3.234299 8.547417 11.249801 -0.415069 -3.553947 -6.834524 -7.322669 -0.544938 34.436317 -8.159650 -1.206320 6.282230 -7.339627 7.102212 -0.129876 -34.000285 -7.044426 0.884815 -15.970119 -81.000846 11.316600 -4.044320 3.810635 0.179270 0.617630 -0.430380 0.214520 7.031542 -2.305139 5.976909 56.329141 7.194629 1.344849 149.465407 62.796361 118.983786 1.787883 -1.844107 -0.372490 0.217980 0.249910 -0.036170 
0.950280 16.951580 -2.424060 3.088503 -16.513565 7.015891 -14.566866 10.690765 4.820649 -4.880004 -7.964964 -45.192779 -2.454119 3.390846 14.736588 -0.888524 2.815999 3.851076 0.005340 -0.436340 -0.000060 19.089440 -11.411236 2.623387 2.722787 3.104416 -15.625320 3.328824 -6.718168 30.361420 -0.229505 -5.199517 2.607483 -0.079010 0.868070 0.438590 -5.685471 2.487958 -7.542329 26.180783 7.385556 10.194145 -5.226391 8.838122 9.908362 -0.206370 -3.797238 -6.483869 -7.510616 -1.320154 33.369249 -8.245700 -1.635940 5.248950 -8.152264 7.872863 -0.654874 -33.053959 -7.154714 1.277479 -8.814136 -85.681256 6.146032 -4.028122 3.773723 0.199740 0.607020 -0.410510 0.229100 7.132177 -2.960347 5.835136 56.874218 5.839425 0.837628 138.567665 62.457724 102.674076 1.903247 -1.745285 -0.369230 0.231880 0.234850 -0.036280 
0.989460 16.851260 -2.431940 2.744349 -16.599961 7.563658 -14.556998 10.663640 4.873120 -2.708431 -7.791512 -46.250209 -3.421519 4.308279 19.462002 -0.743074 3.486032 3.595120 -0.029810 -0.444470 -0.053150 19.103157 -11.351771 2.713394 3.633440 3.833248 -17.167773 1.940240 -6.398038 32.684774 -0.243736 -5.315091 2.585393 -0.101200 0.881190 0.415150 -5.714828 2.519500 -7.643131 27.148085 6.953201 11.519845 -7.375908 9.083964 7.612971 -0.146605 -4.224525 -6.072405 -8.102595 -1.532208 32.446613 -7.839250 -1.636200 5.766950 -9.808665 8.437793 -1.423813 -31.691140 -6.533867 0.081874 -156.519175 -89.552505 156.579463 -3.955241 3.441299 0.177490 0.606650 -0.417850 0.240760 8.249716 -3.225360 5.770065 56.954046 3.673757 -0.081667 124.757307 62.217229 83.552804 2.119256 -1.689151 -0.363430 0.233800 0.233390 -0.010620 
1.021470 16.790270 -2.427860 2.325751 -16.695557 7.508870 -14.563516 10.697171 4.963677 0.151107 -7.643574 -46.793449 -4.940729 5.883782 26.070443 -0.564399 4.712105 3.104093 -0.054630 -0.485420 -0.064260 19.096839 -11.241124 2.783535 4.263415 4.507459 -18.156341 0.595531 -6.139716 34.963455 -0.290729 -5.435588 2.541487 -0.147570 0.846140 0.404440 -5.684147 2.370622 -7.780960 28.071554 5.904974 13.626430 -9.557959 9.001971 5.492819 0.033299 -5.020218 -6.143562 -9.416445 -0.898863 32.403191 -6.773550 -1.451580 4.904080 -11.654562 10.081003 -0.517794 -31.919253 -7.440019 6.686467 115.704703 -79.410688 -113.256743 -4.421910 2.616609 0.232410 0.558240 -0.394820 0.211230 9.378341 -4.161821 4.954572 57.527986 2.199285 -0.794858 104.319331 61.869419 60.494985 2.314409 -1.755618 -0.360040 0.223810 0.261290 -0.027090 
1.029460 16.766050 -2.406220 2.323272 -16.680523 7.512502 -14.611529 10.795410 5.024350 2.411294 -7.543951 -46.512967 -6.017830 7.605794 32.226234 -0.338237 6.041892 2.610851 -0.123020 -0.586340 -0.103380 19.053276 -11.055103 2.831245 4.359292 5.155959 -19.344151 -0.156004 -6.050971 36.818116 -0.319218 -5.539891 2.511216 -0.234080 0.839980 0.396840 -5.551937 1.963528 -7.946044 27.534998 4.805014 15.343360 -10.660000 8.408467 2.913079 -0.028883 -5.647517 -6.202733 -10.871612 -0.174818 33.059352 -5.567700 -1.362320 5.310110 -12.157294 11.042550 -0.635209 -35.591351 -5.080255 3.221909 141.884742 -77.827021 -140.309173 -4.114801 3.672619 0.288500 0.521360 -0.383860 0.184440 9.805210 -4.801599 4.403990 58.973677 1.041404 -2.794206 78.233444 58.585461 38.339167 2.213311 -1.938567 -0.368650 0.213660 0.303490 -0.035650 
1.034640 16.773590 -2.393050 2.017196 -16.276798 7.459922 -14.662915 10.961024 5.022519 4.346348 -7.334389 -45.483952 -6.727944 9.147014 37.110444 -0.122062 7.156580 2.211463 -0.172470 -0.662510 -0.120870 18.999757 -10.839078 2.914922 4.814358 5.750723 -20.366493 -0.516698 -6.108001 38.578577 -0.372610 -5.636571 2.488275 -0.310390 0.812010 0.361340 -5.389879 1.438722 -8.113684 27.161059 3.312079 17.388414 -11.322663 7.484561 0.114786 -0.050634 -6.535365 -6.500179 -12.849299 1.149411 33.987988 -3.723100 -1.285320 5.003110 -12.702034 12.232364 -0.138823 -40.885216 -2.945220 2.263325 146.995515 -73.471547 -144.030233 -4.030843 3.601123 0.369020 0.451200 -0.352340 0.164550 10.314130 -5.311692 3.716381 60.024712 0.505987 -5.462204 58.258016 51.496906 23.524291 2.151133 -1.827243 -0.385090 0.224870 0.322860 -0.047400 
1.034400 16.787700 -2.375200 1.784744 -16.412920 8.340463 -14.707563 11.003430 4.926234 6.039200 -6.929799 -44.439486 -7.154284 10.461002 40.293476 0.070856 7.948785 1.940091 -0.225230 -0.723220 -0.145700 18.978697 -10.552109 3.126325 4.716170 7.307955 -23.552901 -0.300006 -6.674164 42.745353 -0.483788 -6.148609 2.317988 -0.375480 0.798940 0.338510 -5.309671 1.108083 -8.266770 26.533116 2.551543 17.713765 -12.514506 6.800805 -1.697332 0.455057 -6.775845 -6.934582 -13.542413 1.932945 34.544781 -2.786260 -0.743300 5.899790 -13.544948 12.352681 0.293076 -44.714885 -1.092557 0.944864 151.142866 -69.226737 -147.416967 -3.985748 3.552419 0.393790 0.421890 -0.339750 0.149000 10.201065 -5.414388 3.497251 62.727494 -0.660533 -8.201759 43.352529 43.971543 13.718942 2.167876 -1.642570 -0.385420 0.215380 0.333670 -0.047910 
1.024940 16.779210 -2.344870 1.473593 -15.305920 9.146285 -14.739595 11.037924 4.696029 7.285726 -6.520247 -42.635841 -6.868339 11.109170 42.147557 0.154274 8.353224 1.795106 -0.195010 -0.693990 -0.099950 18.972704 -10.295410 3.382068 3.953243 8.769143 -26.964393 1.426581 -8.238439 46.999080 -0.675399 -6.903790 2.054784 -0.377110 0.753310 0.351630 -5.260446 0.883185 -8.363953 25.605717 1.868263 17.028085 -13.116878 5.897922 -2.495456 1.321690 -6.111870 -6.669769 -12.211909 1.340821 34.341873 -3.521220 0.197090 5.122600 -14.692711 12.620452 0.186625 -48.708189 -0.426365 0.118174 155.865948 -66.402184 -152.934008 -3.918448 3.556137 0.423640 0.404400 -0.297830 0.151940 9.634756 -6.589895 2.738978 65.445153 -0.939171 -9.709271 30.904359 35.808929 7.070474 2.189132 -1.472142 -0.368880 0.193450 0.301800 -0.067270 
0.999140 16.751940 -2.311940 1.326868 -13.969239 10.041115 -14.768366 11.076297 4.356685 8.709942 -5.946257 -40.267946 -7.186157 11.376775 41.294337 0.162007 8.287060 1.812612 -0.159990 -0.633700 -0.100690 18.978095 -10.001789 3.683583 2.366813 10.168583 -30.990296 4.165922 -10.799162 51.751851 -0.912477 -7.990372 1.693002 -0.347810 0.751800 0.356170 -5.236298 0.602452 -8.381120 24.288487 1.212282 15.677592 -12.852867 4.740581 -3.160255 1.340178 -5.909242 -5.861957 -11.665379 1.218311 33.031389 -2.735290 0.363960 4.950960 -16.013450 13.198127 -0.095749 -51.740410 -1.178375 0.851059 159.382725 -62.979033 -156.543942 -3.885839 3.592974 0.390060 0.412640 -0.299760 0.171590 10.918138 -8.044902 1.181767 65.930594 -1.218133 -9.977178 18.505290 24.823206 2.019113 2.275032 -1.294815 -0.342640 0.175320 0.273640 -0.051360 
0.975320 16.713540 -2.285250 1.125876 -12.435412 11.163025 -14.786076 11.051100 4.049926 9.862965 -5.562076 -38.541348 -7.375347 11.039018 38.910356 0.057556 7.946981 1.935381 -0.191460 -0.669690 -0.138810 19.001727 -9.770894 3.939024 1.109645 10.972829 -34.690016 6.319133 -13.274697 55.397502 -1.091685 -8.987615 1.368901 -0.340520 0.814410 0.371400 -5.254227 0.455890 -8.335193 23.554059 0.502931 13.774634 -13.625432 3.486977 -3.458644 1.702059 -5.474320 -5.036054 -10.431886 0.855134 31.057988 -2.514850 0.478580 5.916010 -17.403521 13.485798 -0.679186 -52.839436 -2.108391 1.764541 162.356591 -60.481046 -159.854941 -3.944034 3.612899 0.342930 0.472680 -0.356840 0.168980 11.593337 -9.521370 0.090984 66.677275 -2.127004 -10.054635 10.423016 16.148691 -0.170733 2.348053 -1.192655 -0.362500 0.173340 0.306330 -0.046180 
0.959670 16.689900 -2.253660 0.390726 -10.626373 12.043029 -14.786143 11.060699 3.736813 11.082755 -5.106659 -36.648162 -7.614435 10.454343 35.692187 -0.065048 7.446270 2.118170 -0.223810 -0.713650 -0.174260 19.028197 -9.636563 4.126283 0.273908 11.232125 -37.499247 7.945764 -15.663064 58.421362 -1.270065 -9.903458 1.078222 -0.344950 0.863550 0.385660 -5.292638 0.365096 -8.251199 24.175643 -0.207385 11.942717 -15.329577 2.631341 -2.773306 2.681023 -4.767303 -4.978880 -8.891141 0.082455 29.584698 -2.573080 0.447910 7.378910 -18.444114 12.285613 -0.951958 -53.141793 -3.031901 1.951884 166.067691 -59.539006 -165.792406 -3.986625 3.641583 0.304480 0.520930 -0.408070 0.171700 10.797733 -9.700740 0.499034 68.112111 -5.001550 -11.721716 5.708101 12.638536 -0.884438 2.372484 -1.183185 -0.380680 0.156550 0.330160 -0.042880 
